<mxfile host="app.diagrams.net" modified="2022-11-26T11:48:49.140Z" agent="5.0 (Windows NT 10.0; Win64; x64) AppleWebKit/537.36 (KHTML, like Gecko) Chrome/107.0.0.0 Safari/537.36" etag="uiHQbJowYTV-2PIF1_bB" version="20.5.3" type="github">
  <diagram id="2LvSaUD_2NbDKwtUgUR4" name="‫صفحه - 1‬">
    <mxGraphModel dx="981" dy="526" grid="1" gridSize="10" guides="1" tooltips="1" connect="1" arrows="1" fold="1" page="1" pageScale="1" pageWidth="1169" pageHeight="827" math="0" shadow="0">
      <root>
        <mxCell id="0" />
        <mxCell id="1" parent="0" />
        <mxCell id="Riz9hoA4xlr_TVTimCBP-3" value="" style="endArrow=none;html=1;rounded=0;" edge="1" parent="1">
          <mxGeometry width="50" height="50" relative="1" as="geometry">
            <mxPoint x="214" y="614" as="sourcePoint" />
            <mxPoint x="214" y="124" as="targetPoint" />
          </mxGeometry>
        </mxCell>
        <mxCell id="Riz9hoA4xlr_TVTimCBP-4" value="" style="endArrow=none;html=1;rounded=0;" edge="1" parent="1">
          <mxGeometry width="50" height="50" relative="1" as="geometry">
            <mxPoint x="404" y="614" as="sourcePoint" />
            <mxPoint x="404" y="124" as="targetPoint" />
          </mxGeometry>
        </mxCell>
        <mxCell id="Riz9hoA4xlr_TVTimCBP-5" value="" style="endArrow=none;html=1;rounded=0;" edge="1" parent="1">
          <mxGeometry width="50" height="50" relative="1" as="geometry">
            <mxPoint x="954" y="614" as="sourcePoint" />
            <mxPoint x="954" y="124" as="targetPoint" />
          </mxGeometry>
        </mxCell>
        <mxCell id="Riz9hoA4xlr_TVTimCBP-6" value="" style="endArrow=none;html=1;rounded=0;" edge="1" parent="1">
          <mxGeometry width="50" height="50" relative="1" as="geometry">
            <mxPoint x="644" y="614" as="sourcePoint" />
            <mxPoint x="644" y="124" as="targetPoint" />
          </mxGeometry>
        </mxCell>
        <mxCell id="Riz9hoA4xlr_TVTimCBP-7" value="" style="endArrow=none;html=1;rounded=0;" edge="1" parent="1">
          <mxGeometry width="50" height="50" relative="1" as="geometry">
            <mxPoint x="1044" y="614" as="sourcePoint" />
            <mxPoint x="1044" y="124" as="targetPoint" />
          </mxGeometry>
        </mxCell>
        <mxCell id="Riz9hoA4xlr_TVTimCBP-8" value="" style="endArrow=none;html=1;rounded=0;" edge="1" parent="1">
          <mxGeometry width="50" height="50" relative="1" as="geometry">
            <mxPoint x="814" y="614" as="sourcePoint" />
            <mxPoint x="814" y="124" as="targetPoint" />
          </mxGeometry>
        </mxCell>
        <mxCell id="Riz9hoA4xlr_TVTimCBP-24" value="" style="endArrow=classic;html=1;rounded=0;fontSize=22;" edge="1" parent="1">
          <mxGeometry width="50" height="50" relative="1" as="geometry">
            <mxPoint x="214" y="144" as="sourcePoint" />
            <mxPoint x="404" y="144" as="targetPoint" />
          </mxGeometry>
        </mxCell>
        <mxCell id="Riz9hoA4xlr_TVTimCBP-25" value="" style="endArrow=classic;html=1;rounded=0;fontSize=22;" edge="1" parent="1">
          <mxGeometry width="50" height="50" relative="1" as="geometry">
            <mxPoint x="404" y="164" as="sourcePoint" />
            <mxPoint x="214" y="164" as="targetPoint" />
          </mxGeometry>
        </mxCell>
        <mxCell id="Riz9hoA4xlr_TVTimCBP-26" value="&lt;span style=&quot;font-size: 10px;&quot;&gt;دریافت لیست قراردادهای قابل امضاء&lt;/span&gt;" style="text;html=1;strokeColor=none;fillColor=none;align=center;verticalAlign=middle;whiteSpace=wrap;rounded=0;" vertex="1" parent="1">
          <mxGeometry x="233.5" y="194" width="147" height="15" as="geometry" />
        </mxCell>
        <mxCell id="Riz9hoA4xlr_TVTimCBP-27" value="" style="endArrow=classic;html=1;rounded=0;fontSize=22;" edge="1" parent="1">
          <mxGeometry width="50" height="50" relative="1" as="geometry">
            <mxPoint x="214" y="214" as="sourcePoint" />
            <mxPoint x="404" y="214" as="targetPoint" />
          </mxGeometry>
        </mxCell>
        <mxCell id="Riz9hoA4xlr_TVTimCBP-28" value="" style="endArrow=none;html=1;rounded=0;fontSize=12;" edge="1" parent="1">
          <mxGeometry width="50" height="50" relative="1" as="geometry">
            <mxPoint x="184" y="164" as="sourcePoint" />
            <mxPoint x="214" y="164" as="targetPoint" />
          </mxGeometry>
        </mxCell>
        <mxCell id="Riz9hoA4xlr_TVTimCBP-29" value="" style="endArrow=none;html=1;rounded=0;fontSize=12;" edge="1" parent="1">
          <mxGeometry width="50" height="50" relative="1" as="geometry">
            <mxPoint x="184" y="204" as="sourcePoint" />
            <mxPoint x="184" y="164" as="targetPoint" />
          </mxGeometry>
        </mxCell>
        <mxCell id="Riz9hoA4xlr_TVTimCBP-30" value="" style="endArrow=classic;html=1;rounded=0;fontSize=12;" edge="1" parent="1">
          <mxGeometry width="50" height="50" relative="1" as="geometry">
            <mxPoint x="184" y="204" as="sourcePoint" />
            <mxPoint x="214" y="204" as="targetPoint" />
            <Array as="points">
              <mxPoint x="197" y="204" />
            </Array>
          </mxGeometry>
        </mxCell>
        <mxCell id="Riz9hoA4xlr_TVTimCBP-31" value="&lt;font style=&quot;font-size: 9px;&quot;&gt;انتخاب قرارداد&lt;/font&gt;" style="text;html=1;strokeColor=none;fillColor=none;align=center;verticalAlign=middle;whiteSpace=wrap;rounded=0;" vertex="1" parent="1">
          <mxGeometry x="124.5" y="171" width="55" height="19" as="geometry" />
        </mxCell>
        <mxCell id="Riz9hoA4xlr_TVTimCBP-32" value="" style="endArrow=classic;html=1;rounded=0;fontSize=12;" edge="1" parent="1">
          <mxGeometry width="50" height="50" relative="1" as="geometry">
            <mxPoint x="404" y="234" as="sourcePoint" />
            <mxPoint x="814" y="234" as="targetPoint" />
            <Array as="points">
              <mxPoint x="634" y="234" />
              <mxPoint x="634" y="224" />
              <mxPoint x="654" y="224" />
              <mxPoint x="654" y="234" />
            </Array>
          </mxGeometry>
        </mxCell>
        <mxCell id="Riz9hoA4xlr_TVTimCBP-34" value="&lt;font style=&quot;font-size: 10px;&quot;&gt;استعلام شماره موبایل&lt;br&gt;لیست دیتا شاهکار&lt;br&gt;&lt;/font&gt;" style="text;html=1;strokeColor=none;fillColor=none;align=center;verticalAlign=middle;whiteSpace=wrap;rounded=0;" vertex="1" parent="1">
          <mxGeometry x="483.5" y="176" width="87" height="55" as="geometry" />
        </mxCell>
        <mxCell id="Riz9hoA4xlr_TVTimCBP-35" value="" style="endArrow=classic;html=1;rounded=0;fontSize=12;" edge="1" parent="1">
          <mxGeometry width="50" height="50" relative="1" as="geometry">
            <mxPoint x="814" y="254" as="sourcePoint" />
            <mxPoint x="404" y="254" as="targetPoint" />
            <Array as="points">
              <mxPoint x="654" y="254" />
              <mxPoint x="654" y="244" />
              <mxPoint x="634" y="244" />
              <mxPoint x="634" y="254" />
            </Array>
          </mxGeometry>
        </mxCell>
        <mxCell id="Riz9hoA4xlr_TVTimCBP-36" value="" style="endArrow=classic;html=1;rounded=0;fontSize=12;" edge="1" parent="1">
          <mxGeometry width="50" height="50" relative="1" as="geometry">
            <mxPoint x="404" y="264" as="sourcePoint" />
            <mxPoint x="404" y="284" as="targetPoint" />
            <Array as="points">
              <mxPoint x="424" y="264" />
              <mxPoint x="424" y="284" />
            </Array>
          </mxGeometry>
        </mxCell>
        <mxCell id="Riz9hoA4xlr_TVTimCBP-37" value="" style="endArrow=classic;html=1;rounded=0;fontSize=12;" edge="1" parent="1">
          <mxGeometry width="50" height="50" relative="1" as="geometry">
            <mxPoint x="214" y="324" as="sourcePoint" />
            <mxPoint x="404" y="324" as="targetPoint" />
          </mxGeometry>
        </mxCell>
        <mxCell id="Riz9hoA4xlr_TVTimCBP-38" value="" style="endArrow=classic;html=1;rounded=0;fontSize=12;" edge="1" parent="1">
          <mxGeometry width="50" height="50" relative="1" as="geometry">
            <mxPoint x="404" y="304" as="sourcePoint" />
            <mxPoint x="214" y="304" as="targetPoint" />
          </mxGeometry>
        </mxCell>
        <mxCell id="Riz9hoA4xlr_TVTimCBP-39" value="" style="endArrow=classic;html=1;rounded=0;fontSize=12;" edge="1" parent="1">
          <mxGeometry width="50" height="50" relative="1" as="geometry">
            <mxPoint x="404" y="340.08" as="sourcePoint" />
            <mxPoint x="644" y="340.08" as="targetPoint" />
          </mxGeometry>
        </mxCell>
        <mxCell id="Riz9hoA4xlr_TVTimCBP-40" value="درخواست شاهکار شدن" style="text;html=1;strokeColor=none;fillColor=none;align=center;verticalAlign=middle;whiteSpace=wrap;rounded=0;" vertex="1" parent="1">
          <mxGeometry x="437" y="314" width="180" height="28" as="geometry" />
        </mxCell>
        <mxCell id="Riz9hoA4xlr_TVTimCBP-41" value="&lt;font style=&quot;font-size: 10px;&quot;&gt;(Mobile , Convention Code)&lt;/font&gt;" style="text;html=1;strokeColor=none;fillColor=none;align=center;verticalAlign=middle;whiteSpace=wrap;rounded=0;" vertex="1" parent="1">
          <mxGeometry x="458.5" y="342" width="137" height="22" as="geometry" />
        </mxCell>
        <mxCell id="Riz9hoA4xlr_TVTimCBP-43" value="" style="endArrow=classic;html=1;rounded=0;fontSize=12;exitX=0.5;exitY=0;exitDx=0;exitDy=0;" edge="1" parent="1" source="Riz9hoA4xlr_TVTimCBP-58">
          <mxGeometry width="50" height="50" relative="1" as="geometry">
            <mxPoint x="357" y="271" as="sourcePoint" />
            <mxPoint x="317" y="241" as="targetPoint" />
            <Array as="points">
              <mxPoint x="367" y="241" />
            </Array>
          </mxGeometry>
        </mxCell>
        <mxCell id="Riz9hoA4xlr_TVTimCBP-49" style="edgeStyle=orthogonalEdgeStyle;rounded=0;orthogonalLoop=1;jettySize=auto;html=1;exitX=0;exitY=0.5;exitDx=0;exitDy=0;entryX=1;entryY=0.5;entryDx=0;entryDy=0;fontSize=12;" edge="1" parent="1" source="Riz9hoA4xlr_TVTimCBP-45" target="Riz9hoA4xlr_TVTimCBP-47">
          <mxGeometry relative="1" as="geometry" />
        </mxCell>
        <mxCell id="Riz9hoA4xlr_TVTimCBP-45" value="نه" style="ellipse;whiteSpace=wrap;html=1;aspect=fixed;fontSize=12;" vertex="1" parent="1">
          <mxGeometry x="297" y="231" width="20" height="18" as="geometry" />
        </mxCell>
        <mxCell id="Riz9hoA4xlr_TVTimCBP-50" style="edgeStyle=orthogonalEdgeStyle;rounded=0;orthogonalLoop=1;jettySize=auto;html=1;exitX=0;exitY=0.5;exitDx=0;exitDy=0;entryX=1;entryY=0.5;entryDx=0;entryDy=0;fontSize=12;" edge="1" parent="1" source="Riz9hoA4xlr_TVTimCBP-46" target="Riz9hoA4xlr_TVTimCBP-48">
          <mxGeometry relative="1" as="geometry" />
        </mxCell>
        <mxCell id="Riz9hoA4xlr_TVTimCBP-46" value="بله" style="ellipse;whiteSpace=wrap;html=1;aspect=fixed;fontSize=12;" vertex="1" parent="1">
          <mxGeometry x="297" y="271" width="20" height="18" as="geometry" />
        </mxCell>
        <mxCell id="Riz9hoA4xlr_TVTimCBP-47" value="C" style="ellipse;whiteSpace=wrap;html=1;aspect=fixed;fontSize=12;" vertex="1" parent="1">
          <mxGeometry x="247" y="231" width="20" height="18" as="geometry" />
        </mxCell>
        <mxCell id="Riz9hoA4xlr_TVTimCBP-48" value="A" style="ellipse;whiteSpace=wrap;html=1;aspect=fixed;fontSize=12;" vertex="1" parent="1">
          <mxGeometry x="247" y="271" width="20" height="18" as="geometry" />
        </mxCell>
        <mxCell id="Riz9hoA4xlr_TVTimCBP-51" value="C" style="swimlane;whiteSpace=wrap;html=1;fontSize=12;" vertex="1" parent="1">
          <mxGeometry x="92" y="231" width="115" height="58" as="geometry" />
        </mxCell>
        <mxCell id="Riz9hoA4xlr_TVTimCBP-53" value="کال سنتر" style="text;html=1;align=center;verticalAlign=middle;resizable=0;points=[];autosize=1;strokeColor=none;fillColor=none;fontSize=12;" vertex="1" parent="Riz9hoA4xlr_TVTimCBP-51">
          <mxGeometry x="27.5" y="25" width="60" height="30" as="geometry" />
        </mxCell>
        <mxCell id="Riz9hoA4xlr_TVTimCBP-54" value="B" style="swimlane;whiteSpace=wrap;html=1;fontSize=12;" vertex="1" parent="1">
          <mxGeometry x="92" y="301" width="115" height="79" as="geometry" />
        </mxCell>
        <mxCell id="Riz9hoA4xlr_TVTimCBP-55" value="اگر این شماره برای این آدم&lt;br&gt;شاهکار نیست نشان&lt;br&gt;نمی دهم" style="text;html=1;align=center;verticalAlign=middle;resizable=0;points=[];autosize=1;strokeColor=none;fillColor=none;fontSize=12;" vertex="1" parent="Riz9hoA4xlr_TVTimCBP-54">
          <mxGeometry x="-7.5" y="21" width="130" height="60" as="geometry" />
        </mxCell>
        <mxCell id="Riz9hoA4xlr_TVTimCBP-59" style="edgeStyle=orthogonalEdgeStyle;rounded=0;orthogonalLoop=1;jettySize=auto;html=1;exitX=0;exitY=0.5;exitDx=0;exitDy=0;entryX=1;entryY=0.5;entryDx=0;entryDy=0;fontSize=10;" edge="1" parent="1" source="Riz9hoA4xlr_TVTimCBP-58" target="Riz9hoA4xlr_TVTimCBP-46">
          <mxGeometry relative="1" as="geometry" />
        </mxCell>
        <mxCell id="Riz9hoA4xlr_TVTimCBP-58" value="&lt;font style=&quot;font-size: 10px;&quot;&gt;آیا شماره شاهکار&lt;br&gt;است؟(نیدانم)&lt;/font&gt;" style="rounded=1;whiteSpace=wrap;html=1;fontSize=12;" vertex="1" parent="1">
          <mxGeometry x="337" y="266" width="60" height="28" as="geometry" />
        </mxCell>
        <mxCell id="Riz9hoA4xlr_TVTimCBP-60" value="" style="endArrow=classic;html=1;rounded=0;fontSize=10;" edge="1" parent="1">
          <mxGeometry width="50" height="50" relative="1" as="geometry">
            <mxPoint x="644" y="354" as="sourcePoint" />
            <mxPoint x="814" y="354" as="targetPoint" />
          </mxGeometry>
        </mxCell>
        <mxCell id="Riz9hoA4xlr_TVTimCBP-61" value="" style="endArrow=classic;html=1;rounded=0;fontSize=10;" edge="1" parent="1">
          <mxGeometry width="50" height="50" relative="1" as="geometry">
            <mxPoint x="814" y="374" as="sourcePoint" />
            <mxPoint x="644" y="374" as="targetPoint" />
            <Array as="points" />
          </mxGeometry>
        </mxCell>
        <mxCell id="Riz9hoA4xlr_TVTimCBP-62" value="&lt;font style=&quot;font-size: 10px;&quot;&gt;آیا شماره شاهکار برای کس دیگری است؟ نه&lt;/font&gt;" style="text;html=1;strokeColor=none;fillColor=none;align=center;verticalAlign=middle;whiteSpace=wrap;rounded=0;" vertex="1" parent="1">
          <mxGeometry x="653.5" y="334" width="147" height="18" as="geometry" />
        </mxCell>
        <mxCell id="Riz9hoA4xlr_TVTimCBP-63" value="" style="endArrow=classic;html=1;rounded=0;fontSize=10;" edge="1" parent="1">
          <mxGeometry width="50" height="50" relative="1" as="geometry">
            <mxPoint x="644" y="394" as="sourcePoint" />
            <mxPoint x="814" y="394" as="targetPoint" />
          </mxGeometry>
        </mxCell>
        <mxCell id="Riz9hoA4xlr_TVTimCBP-64" value="" style="endArrow=classic;html=1;rounded=0;fontSize=10;" edge="1" parent="1">
          <mxGeometry width="50" height="50" relative="1" as="geometry">
            <mxPoint x="814" y="410" as="sourcePoint" />
            <mxPoint x="644" y="410" as="targetPoint" />
            <Array as="points">
              <mxPoint x="724" y="410" />
            </Array>
          </mxGeometry>
        </mxCell>
        <mxCell id="Riz9hoA4xlr_TVTimCBP-65" value="&lt;font style=&quot;font-size: 10px;&quot;&gt;دیافت کد ملی&lt;/font&gt;" style="text;html=1;strokeColor=none;fillColor=none;align=center;verticalAlign=middle;whiteSpace=wrap;rounded=0;" vertex="1" parent="1">
          <mxGeometry x="687" y="420" width="80" height="8" as="geometry" />
        </mxCell>
        <mxCell id="Riz9hoA4xlr_TVTimCBP-66" value="" style="endArrow=classic;html=1;rounded=0;fontSize=10;" edge="1" parent="1">
          <mxGeometry width="50" height="50" relative="1" as="geometry">
            <mxPoint x="644" y="476" as="sourcePoint" />
            <mxPoint x="954" y="476" as="targetPoint" />
            <Array as="points">
              <mxPoint x="804" y="476" />
              <mxPoint x="804" y="466" />
              <mxPoint x="824" y="466" />
              <mxPoint x="824" y="476" />
            </Array>
          </mxGeometry>
        </mxCell>
        <mxCell id="Riz9hoA4xlr_TVTimCBP-67" value="&lt;font style=&quot;font-size: 9px;&quot;&gt;آیا کد ملی و موبایل مطابقت دارد&lt;/font&gt;" style="text;html=1;strokeColor=none;fillColor=none;align=center;verticalAlign=middle;whiteSpace=wrap;rounded=0;" vertex="1" parent="1">
          <mxGeometry x="660.5" y="462" width="140" height="8" as="geometry" />
        </mxCell>
        <mxCell id="Riz9hoA4xlr_TVTimCBP-68" value="" style="endArrow=classic;html=1;rounded=0;fontSize=10;" edge="1" parent="1">
          <mxGeometry width="50" height="50" relative="1" as="geometry">
            <mxPoint x="954" y="494" as="sourcePoint" />
            <mxPoint x="644" y="494" as="targetPoint" />
            <Array as="points">
              <mxPoint x="824" y="494" />
              <mxPoint x="824" y="484" />
              <mxPoint x="804" y="484" />
              <mxPoint x="804" y="494" />
            </Array>
          </mxGeometry>
        </mxCell>
        <mxCell id="Riz9hoA4xlr_TVTimCBP-69" value="" style="endArrow=classic;html=1;rounded=0;fontSize=10;" edge="1" parent="1">
          <mxGeometry width="50" height="50" relative="1" as="geometry">
            <mxPoint x="644" y="510" as="sourcePoint" />
            <mxPoint x="814" y="510" as="targetPoint" />
          </mxGeometry>
        </mxCell>
        <mxCell id="Riz9hoA4xlr_TVTimCBP-70" value="&lt;font style=&quot;font-size: 10px;&quot;&gt;آپدیت اطلاعات شاهکار&lt;/font&gt;" style="text;html=1;strokeColor=none;fillColor=none;align=center;verticalAlign=middle;whiteSpace=wrap;rounded=0;" vertex="1" parent="1">
          <mxGeometry x="687" y="520" width="80" height="8" as="geometry" />
        </mxCell>
        <mxCell id="Riz9hoA4xlr_TVTimCBP-71" value="" style="endArrow=classic;html=1;rounded=0;fontSize=10;" edge="1" parent="1">
          <mxGeometry width="50" height="50" relative="1" as="geometry">
            <mxPoint x="644" y="524" as="sourcePoint" />
            <mxPoint x="404" y="524" as="targetPoint" />
          </mxGeometry>
        </mxCell>
        <mxCell id="Riz9hoA4xlr_TVTimCBP-72" value="&lt;span style=&quot;font-size: 10px;&quot;&gt;شاهکار کردم&lt;/span&gt;" style="text;html=1;strokeColor=none;fillColor=none;align=center;verticalAlign=middle;whiteSpace=wrap;rounded=0;" vertex="1" parent="1">
          <mxGeometry x="487" y="507" width="80" height="8" as="geometry" />
        </mxCell>
        <mxCell id="Riz9hoA4xlr_TVTimCBP-73" value="" style="endArrow=classic;html=1;rounded=0;fontSize=10;" edge="1" parent="1">
          <mxGeometry width="50" height="50" relative="1" as="geometry">
            <mxPoint x="404" y="540" as="sourcePoint" />
            <mxPoint x="214" y="540" as="targetPoint" />
          </mxGeometry>
        </mxCell>
        <mxCell id="Riz9hoA4xlr_TVTimCBP-74" value="&lt;span style=&quot;font-size: 10px;&quot;&gt;می خواهی پیش فرض هم کنی؟&lt;/span&gt;" style="text;html=1;strokeColor=none;fillColor=none;align=center;verticalAlign=middle;whiteSpace=wrap;rounded=0;" vertex="1" parent="1">
          <mxGeometry x="253.5" y="528" width="107" height="8" as="geometry" />
        </mxCell>
        <mxCell id="Riz9hoA4xlr_TVTimCBP-75" value="" style="endArrow=classic;startArrow=classic;html=1;rounded=0;fontSize=10;" edge="1" parent="1">
          <mxGeometry width="50" height="50" relative="1" as="geometry">
            <mxPoint x="214" y="574" as="sourcePoint" />
            <mxPoint x="1044" y="574" as="targetPoint" />
            <Array as="points">
              <mxPoint x="394" y="574" />
              <mxPoint x="394" y="564" />
              <mxPoint x="414" y="564" />
              <mxPoint x="414" y="574" />
              <mxPoint x="634" y="574" />
              <mxPoint x="634" y="564" />
              <mxPoint x="654" y="564" />
              <mxPoint x="654" y="574" />
              <mxPoint x="804" y="574" />
              <mxPoint x="804" y="564" />
              <mxPoint x="824" y="564" />
              <mxPoint x="824" y="574" />
              <mxPoint x="944" y="574" />
              <mxPoint x="944" y="564" />
              <mxPoint x="964" y="564" />
              <mxPoint x="964" y="574" />
            </Array>
          </mxGeometry>
        </mxCell>
        <mxCell id="Riz9hoA4xlr_TVTimCBP-79" value="A" style="ellipse;whiteSpace=wrap;html=1;aspect=fixed;fontSize=10;" vertex="1" parent="1">
          <mxGeometry x="134" y="520" width="40" height="40" as="geometry" />
        </mxCell>
        <mxCell id="Riz9hoA4xlr_TVTimCBP-84" value="" style="endArrow=classic;html=1;rounded=0;fontSize=10;exitX=0.5;exitY=1;exitDx=0;exitDy=0;" edge="1" parent="1" source="Riz9hoA4xlr_TVTimCBP-79">
          <mxGeometry width="50" height="50" relative="1" as="geometry">
            <mxPoint x="444" y="524" as="sourcePoint" />
            <mxPoint x="214" y="574" as="targetPoint" />
          </mxGeometry>
        </mxCell>
        <mxCell id="Riz9hoA4xlr_TVTimCBP-85" value="" style="endArrow=classic;html=1;rounded=0;fontSize=10;entryX=1;entryY=1;entryDx=0;entryDy=0;" edge="1" parent="1" target="Riz9hoA4xlr_TVTimCBP-86">
          <mxGeometry width="50" height="50" relative="1" as="geometry">
            <mxPoint x="214" y="594" as="sourcePoint" />
            <mxPoint x="164" y="664" as="targetPoint" />
          </mxGeometry>
        </mxCell>
        <mxCell id="Riz9hoA4xlr_TVTimCBP-86" value="ارسال پاسخ" style="ellipse;whiteSpace=wrap;html=1;aspect=fixed;fontSize=10;" vertex="1" parent="1">
          <mxGeometry x="105" y="574" width="52" height="52" as="geometry" />
        </mxCell>
        <mxCell id="Riz9hoA4xlr_TVTimCBP-119" value="Online" style="rounded=1;whiteSpace=wrap;html=1;fontSize=10;" vertex="1" parent="1">
          <mxGeometry x="179.5" y="80" width="67.5" height="30" as="geometry" />
        </mxCell>
        <mxCell id="Riz9hoA4xlr_TVTimCBP-120" value="Bof" style="rounded=1;whiteSpace=wrap;html=1;fontSize=10;" vertex="1" parent="1">
          <mxGeometry x="369.5" y="80" width="67.5" height="30" as="geometry" />
        </mxCell>
        <mxCell id="Riz9hoA4xlr_TVTimCBP-121" value="Crm" style="rounded=1;whiteSpace=wrap;html=1;fontSize=10;" vertex="1" parent="1">
          <mxGeometry x="608.5" y="80" width="67.5" height="30" as="geometry" />
        </mxCell>
        <mxCell id="Riz9hoA4xlr_TVTimCBP-122" value="Ccms" style="rounded=1;whiteSpace=wrap;html=1;fontSize=10;" vertex="1" parent="1">
          <mxGeometry x="778.5" y="80" width="67.5" height="30" as="geometry" />
        </mxCell>
        <mxCell id="Riz9hoA4xlr_TVTimCBP-123" value="Shahkar" style="rounded=1;whiteSpace=wrap;html=1;fontSize=10;" vertex="1" parent="1">
          <mxGeometry x="918.5" y="80" width="67.5" height="30" as="geometry" />
        </mxCell>
        <mxCell id="Riz9hoA4xlr_TVTimCBP-124" value="Cinfo" style="rounded=1;whiteSpace=wrap;html=1;fontSize=10;" vertex="1" parent="1">
          <mxGeometry x="1010" y="80" width="67.5" height="30" as="geometry" />
        </mxCell>
        <mxCell id="Riz9hoA4xlr_TVTimCBP-126" value="" style="shape=table;html=1;whiteSpace=wrap;startSize=0;container=1;collapsible=0;childLayout=tableLayout;fontSize=10;" vertex="1" parent="1">
          <mxGeometry x="224.5" y="630" width="180" height="151" as="geometry" />
        </mxCell>
        <mxCell id="Riz9hoA4xlr_TVTimCBP-127" value="" style="shape=tableRow;horizontal=0;startSize=0;swimlaneHead=0;swimlaneBody=0;top=0;left=0;bottom=0;right=0;collapsible=0;dropTarget=0;fillColor=none;points=[[0,0.5],[1,0.5]];portConstraint=eastwest;fontSize=10;" vertex="1" parent="Riz9hoA4xlr_TVTimCBP-126">
          <mxGeometry width="180" height="14" as="geometry" />
        </mxCell>
        <mxCell id="Riz9hoA4xlr_TVTimCBP-128" value="&lt;font style=&quot;font-size: 8px;&quot;&gt;پیش فرض&lt;/font&gt;" style="shape=partialRectangle;html=1;whiteSpace=wrap;connectable=0;fillColor=none;top=0;left=0;bottom=0;right=0;overflow=hidden;fontSize=10;" vertex="1" parent="Riz9hoA4xlr_TVTimCBP-127">
          <mxGeometry width="60" height="14" as="geometry">
            <mxRectangle width="60" height="14" as="alternateBounds" />
          </mxGeometry>
        </mxCell>
        <mxCell id="Riz9hoA4xlr_TVTimCBP-129" value="&lt;font style=&quot;font-size: 8px;&quot;&gt;Otp&lt;/font&gt;" style="shape=partialRectangle;html=1;whiteSpace=wrap;connectable=0;fillColor=none;top=0;left=0;bottom=0;right=0;overflow=hidden;fontSize=10;" vertex="1" parent="Riz9hoA4xlr_TVTimCBP-127">
          <mxGeometry x="60" width="60" height="14" as="geometry">
            <mxRectangle width="60" height="14" as="alternateBounds" />
          </mxGeometry>
        </mxCell>
        <mxCell id="Riz9hoA4xlr_TVTimCBP-130" value="&lt;font style=&quot;font-size: 8px;&quot;&gt;شاهکار&lt;/font&gt;" style="shape=partialRectangle;html=1;whiteSpace=wrap;connectable=0;fillColor=none;top=0;left=0;bottom=0;right=0;overflow=hidden;fontSize=10;" vertex="1" parent="Riz9hoA4xlr_TVTimCBP-127">
          <mxGeometry x="120" width="60" height="14" as="geometry">
            <mxRectangle width="60" height="14" as="alternateBounds" />
          </mxGeometry>
        </mxCell>
        <mxCell id="Riz9hoA4xlr_TVTimCBP-140" style="shape=tableRow;horizontal=0;startSize=0;swimlaneHead=0;swimlaneBody=0;top=0;left=0;bottom=0;right=0;collapsible=0;dropTarget=0;fillColor=none;points=[[0,0.5],[1,0.5]];portConstraint=eastwest;fontSize=10;" vertex="1" parent="Riz9hoA4xlr_TVTimCBP-126">
          <mxGeometry y="14" width="180" height="20" as="geometry" />
        </mxCell>
        <mxCell id="Riz9hoA4xlr_TVTimCBP-141" style="shape=partialRectangle;html=1;whiteSpace=wrap;connectable=0;fillColor=none;top=0;left=0;bottom=0;right=0;overflow=hidden;fontSize=10;" vertex="1" parent="Riz9hoA4xlr_TVTimCBP-140">
          <mxGeometry width="60" height="20" as="geometry">
            <mxRectangle width="60" height="20" as="alternateBounds" />
          </mxGeometry>
        </mxCell>
        <mxCell id="Riz9hoA4xlr_TVTimCBP-142" style="shape=partialRectangle;html=1;whiteSpace=wrap;connectable=0;fillColor=none;top=0;left=0;bottom=0;right=0;overflow=hidden;fontSize=10;" vertex="1" parent="Riz9hoA4xlr_TVTimCBP-140">
          <mxGeometry x="60" width="60" height="20" as="geometry">
            <mxRectangle width="60" height="20" as="alternateBounds" />
          </mxGeometry>
        </mxCell>
        <mxCell id="Riz9hoA4xlr_TVTimCBP-143" style="shape=partialRectangle;html=1;whiteSpace=wrap;connectable=0;fillColor=none;top=0;left=0;bottom=0;right=0;overflow=hidden;fontSize=10;" vertex="1" parent="Riz9hoA4xlr_TVTimCBP-140">
          <mxGeometry x="120" width="60" height="20" as="geometry">
            <mxRectangle width="60" height="20" as="alternateBounds" />
          </mxGeometry>
        </mxCell>
        <mxCell id="Riz9hoA4xlr_TVTimCBP-144" style="shape=tableRow;horizontal=0;startSize=0;swimlaneHead=0;swimlaneBody=0;top=0;left=0;bottom=0;right=0;collapsible=0;dropTarget=0;fillColor=none;points=[[0,0.5],[1,0.5]];portConstraint=eastwest;fontSize=10;" vertex="1" parent="Riz9hoA4xlr_TVTimCBP-126">
          <mxGeometry y="34" width="180" height="28" as="geometry" />
        </mxCell>
        <mxCell id="Riz9hoA4xlr_TVTimCBP-145" style="shape=partialRectangle;html=1;whiteSpace=wrap;connectable=0;fillColor=none;top=0;left=0;bottom=0;right=0;overflow=hidden;fontSize=10;" vertex="1" parent="Riz9hoA4xlr_TVTimCBP-144">
          <mxGeometry width="60" height="28" as="geometry">
            <mxRectangle width="60" height="28" as="alternateBounds" />
          </mxGeometry>
        </mxCell>
        <mxCell id="Riz9hoA4xlr_TVTimCBP-146" style="shape=partialRectangle;html=1;whiteSpace=wrap;connectable=0;fillColor=none;top=0;left=0;bottom=0;right=0;overflow=hidden;fontSize=10;" vertex="1" parent="Riz9hoA4xlr_TVTimCBP-144">
          <mxGeometry x="60" width="60" height="28" as="geometry">
            <mxRectangle width="60" height="28" as="alternateBounds" />
          </mxGeometry>
        </mxCell>
        <mxCell id="Riz9hoA4xlr_TVTimCBP-147" style="shape=partialRectangle;html=1;whiteSpace=wrap;connectable=0;fillColor=none;top=0;left=0;bottom=0;right=0;overflow=hidden;fontSize=10;" vertex="1" parent="Riz9hoA4xlr_TVTimCBP-144">
          <mxGeometry x="120" width="60" height="28" as="geometry">
            <mxRectangle width="60" height="28" as="alternateBounds" />
          </mxGeometry>
        </mxCell>
        <mxCell id="Riz9hoA4xlr_TVTimCBP-131" value="" style="shape=tableRow;horizontal=0;startSize=0;swimlaneHead=0;swimlaneBody=0;top=0;left=0;bottom=0;right=0;collapsible=0;dropTarget=0;fillColor=none;points=[[0,0.5],[1,0.5]];portConstraint=eastwest;fontSize=10;" vertex="1" parent="Riz9hoA4xlr_TVTimCBP-126">
          <mxGeometry y="62" width="180" height="29" as="geometry" />
        </mxCell>
        <mxCell id="Riz9hoA4xlr_TVTimCBP-132" value="" style="shape=partialRectangle;html=1;whiteSpace=wrap;connectable=0;fillColor=none;top=0;left=0;bottom=0;right=0;overflow=hidden;fontSize=10;" vertex="1" parent="Riz9hoA4xlr_TVTimCBP-131">
          <mxGeometry width="60" height="29" as="geometry">
            <mxRectangle width="60" height="29" as="alternateBounds" />
          </mxGeometry>
        </mxCell>
        <mxCell id="Riz9hoA4xlr_TVTimCBP-133" value="" style="shape=partialRectangle;html=1;whiteSpace=wrap;connectable=0;fillColor=none;top=0;left=0;bottom=0;right=0;overflow=hidden;fontSize=10;" vertex="1" parent="Riz9hoA4xlr_TVTimCBP-131">
          <mxGeometry x="60" width="60" height="29" as="geometry">
            <mxRectangle width="60" height="29" as="alternateBounds" />
          </mxGeometry>
        </mxCell>
        <mxCell id="Riz9hoA4xlr_TVTimCBP-134" value="" style="shape=partialRectangle;html=1;whiteSpace=wrap;connectable=0;fillColor=none;top=0;left=0;bottom=0;right=0;overflow=hidden;fontSize=10;" vertex="1" parent="Riz9hoA4xlr_TVTimCBP-131">
          <mxGeometry x="120" width="60" height="29" as="geometry">
            <mxRectangle width="60" height="29" as="alternateBounds" />
          </mxGeometry>
        </mxCell>
        <mxCell id="Riz9hoA4xlr_TVTimCBP-135" value="" style="shape=tableRow;horizontal=0;startSize=0;swimlaneHead=0;swimlaneBody=0;top=0;left=0;bottom=0;right=0;collapsible=0;dropTarget=0;fillColor=none;points=[[0,0.5],[1,0.5]];portConstraint=eastwest;fontSize=10;" vertex="1" parent="Riz9hoA4xlr_TVTimCBP-126">
          <mxGeometry y="91" width="180" height="60" as="geometry" />
        </mxCell>
        <mxCell id="Riz9hoA4xlr_TVTimCBP-136" value="" style="shape=partialRectangle;html=1;whiteSpace=wrap;connectable=0;fillColor=none;top=0;left=0;bottom=0;right=0;overflow=hidden;fontSize=10;" vertex="1" parent="Riz9hoA4xlr_TVTimCBP-135">
          <mxGeometry width="60" height="60" as="geometry">
            <mxRectangle width="60" height="60" as="alternateBounds" />
          </mxGeometry>
        </mxCell>
        <mxCell id="Riz9hoA4xlr_TVTimCBP-137" value="" style="shape=partialRectangle;html=1;whiteSpace=wrap;connectable=0;fillColor=none;top=0;left=0;bottom=0;right=0;overflow=hidden;fontSize=10;" vertex="1" parent="Riz9hoA4xlr_TVTimCBP-135">
          <mxGeometry x="60" width="60" height="60" as="geometry">
            <mxRectangle width="60" height="60" as="alternateBounds" />
          </mxGeometry>
        </mxCell>
        <mxCell id="Riz9hoA4xlr_TVTimCBP-138" value="" style="shape=partialRectangle;html=1;whiteSpace=wrap;connectable=0;fillColor=none;top=0;left=0;bottom=0;right=0;overflow=hidden;pointerEvents=1;fontSize=10;" vertex="1" parent="Riz9hoA4xlr_TVTimCBP-135">
          <mxGeometry x="120" width="60" height="60" as="geometry">
            <mxRectangle width="60" height="60" as="alternateBounds" />
          </mxGeometry>
        </mxCell>
        <mxCell id="Riz9hoA4xlr_TVTimCBP-148" value="&lt;font style=&quot;font-size: 10px;&quot;&gt;انتخاب یک شماره &lt;br&gt;(در شاهکار هست قطعا)&lt;/font&gt;" style="text;html=1;strokeColor=none;fillColor=none;align=center;verticalAlign=middle;whiteSpace=wrap;rounded=0;" vertex="1" parent="1">
          <mxGeometry x="240.75" y="334" width="147.5" height="26" as="geometry" />
        </mxCell>
        <mxCell id="Riz9hoA4xlr_TVTimCBP-153" style="edgeStyle=orthogonalEdgeStyle;rounded=0;orthogonalLoop=1;jettySize=auto;html=1;exitX=0.5;exitY=0;exitDx=0;exitDy=0;fontSize=9;" edge="1" parent="1" source="Riz9hoA4xlr_TVTimCBP-151" target="Riz9hoA4xlr_TVTimCBP-152">
          <mxGeometry relative="1" as="geometry" />
        </mxCell>
        <mxCell id="Riz9hoA4xlr_TVTimCBP-151" value="&lt;span style=&quot;font-size: 10px;&quot;&gt;می توانم شاهکار کنم برای مشتری&lt;/span&gt;" style="rounded=1;whiteSpace=wrap;html=1;fontSize=9;" vertex="1" parent="1">
          <mxGeometry x="874.5" y="284" width="70" height="30" as="geometry" />
        </mxCell>
        <mxCell id="Riz9hoA4xlr_TVTimCBP-152" value="&lt;span style=&quot;font-size: 10px;&quot;&gt;برای خودت قبلا استعلام کردم&lt;/span&gt;" style="rounded=1;whiteSpace=wrap;html=1;fontSize=9;" vertex="1" parent="1">
          <mxGeometry x="874.5" y="216" width="70" height="30" as="geometry" />
        </mxCell>
        <mxCell id="Riz9hoA4xlr_TVTimCBP-154" value="" style="endArrow=classic;html=1;rounded=0;fontSize=9;exitX=0;exitY=0.5;exitDx=0;exitDy=0;entryX=1;entryY=0;entryDx=0;entryDy=0;" edge="1" parent="1" source="Riz9hoA4xlr_TVTimCBP-151" target="Riz9hoA4xlr_TVTimCBP-62">
          <mxGeometry width="50" height="50" relative="1" as="geometry">
            <mxPoint x="914.5" y="360" as="sourcePoint" />
            <mxPoint x="964.5" y="310" as="targetPoint" />
          </mxGeometry>
        </mxCell>
        <mxCell id="Riz9hoA4xlr_TVTimCBP-155" value="&lt;span style=&quot;font-size: 10px;&quot;&gt;دریافت قرارداد&lt;/span&gt;" style="text;html=1;strokeColor=none;fillColor=none;align=center;verticalAlign=middle;whiteSpace=wrap;rounded=0;" vertex="1" parent="1">
          <mxGeometry x="487" y="580" width="80" height="8" as="geometry" />
        </mxCell>
      </root>
    </mxGraphModel>
  </diagram>
</mxfile>
